<svg id="Layer_1" data-name="Layer 1" xmlns="http://www.w3.org/2000/svg" viewBox="0 0 387.71 180.87"><defs><style>.cls-1{fill:red;}</style></defs><path d="M102.83,103.37H73.33V79.51l4.23-4.23h14V65.5h-7v5.55H73.33V61.28h29.5ZM91.56,99.15V79.51h-7V99.15Z"/><path d="M139.46,85.14v18.23H107.14v-14h11.27v9.78h9.78V90.78L108.55,78.1V65.5l4.23-4.22h25.28V72.46H126.78v-7h-7v7Z"/><path d="M163.75,103.37h-18.4V65.5H139.8V61.28h5.55V48.68l11.27-1.41v14h7.13V65.5h-7.13V99.15h7.13Z"/><path d="M195.65,61.28V83.74H177.42V99.15h7V89.37h11.19v14H166.23V61.28ZM184.46,65.5h-7v14h7Z"/><path d="M221.09,65.5h-8.7v37.87H201.2V61.28h19.89Z"/><path d="M223.33,61.28l11.27-1.41v43.5H223.33Z"/><path d="M270.4,61.28v42.09H240.9V61.28ZM259.13,65.5h-7V99.15h7Z"/><path d="M306,65.5v37.87H294.77V65.5h-7v37.87H276.53V61.28h25.28Z"/><path class="cls-1" d="M76.76,116.57a1.81,1.81,0,0,0,2-1.92,2,2,0,0,0-.5-1.38,2,2,0,0,0-1.52-.54,1.79,1.79,0,0,0-2,1.92,2,2,0,0,0,.49,1.38A2,2,0,0,0,76.76,116.57Z"/><polygon class="cls-1" points="73.26 119.33 73.26 121.77 75.89 121.77 75.89 136.45 78.97 136.45 78.97 121.77 78.97 119.33 75.89 119.33 73.26 119.33"/><path class="cls-1" d="M103.72,118.82h-.13a6.43,6.43,0,0,0-3.56.91,5.47,5.47,0,0,0-2.1,2.66,8.62,8.62,0,0,0-.31.94v-4H95.19v17.12h3.08V126.22a4.48,4.48,0,0,1,1.25-3.33,4.42,4.42,0,0,1,3.27-1.25,4,4,0,0,1,3.07,1.2A4.49,4.49,0,0,1,107,126v10.42h3.07v-9.78a9.44,9.44,0,0,0-1.55-5.83A5.67,5.67,0,0,0,103.72,118.82Z"/><path class="cls-1" d="M127.66,116.57a1.81,1.81,0,0,0,2-1.92,2,2,0,0,0-.5-1.38,2.41,2.41,0,0,0-3,0,2,2,0,0,0-.5,1.38,1.81,1.81,0,0,0,2,1.92Z"/><polygon class="cls-1" points="124.17 119.33 124.17 121.77 126.8 121.77 126.8 136.45 129.87 136.45 129.87 121.77 129.87 119.33 126.8 119.33 124.17 119.33"/><path class="cls-1" d="M149.49,114.14h-3v5.19h-2.95v2.31h2.95v9a7.26,7.26,0,0,0,.76,3.61,4.14,4.14,0,0,0,2.14,1.88,9.2,9.2,0,0,0,3.32.54h2.63v-2.76h-3a2.88,2.88,0,0,1-2.13-.75,2.85,2.85,0,0,1-.76-2.13v-9.36h5.9v-2.31h-5.9Z"/><path class="cls-1" d="M171.7,116.57a1.79,1.79,0,1,0-1.52-.54A2,2,0,0,0,171.7,116.57Z"/><polygon class="cls-1" points="168.21 119.33 168.21 121.77 170.84 121.77 170.84 136.45 173.92 136.45 173.92 121.77 173.92 119.33 170.84 119.33 168.21 119.33"/><path class="cls-1" d="M199.66,119.76a12.63,12.63,0,0,0-4.3-.62h-1.6l-1.62.07-1.49.11V122c.47,0,1-.07,1.67-.09l2-.07,2,0a3.65,3.65,0,0,1,2.67.9,3.56,3.56,0,0,1,.92,2.66v.42h-4.33a10.35,10.35,0,0,0-3.78.62,5,5,0,0,0-2.39,1.84,5.34,5.34,0,0,0-.82,3,5.63,5.63,0,0,0,.76,3,4.8,4.8,0,0,0,2.14,1.91,7.71,7.71,0,0,0,3.32.66,6.78,6.78,0,0,0,3.06-.64,4.75,4.75,0,0,0,2-1.88,5.83,5.83,0,0,0,.56-1.32v3.39h2.44V125.61a7.76,7.76,0,0,0-.8-3.81A4.62,4.62,0,0,0,199.66,119.76Zm-.4,13a3.67,3.67,0,0,1-1.66,1.35,5.42,5.42,0,0,1-2.08.4,4.24,4.24,0,0,1-2.85-.86,2.89,2.89,0,0,1-1-2.28,3,3,0,0,1,1-2.31,4.09,4.09,0,0,1,2.85-.9H200v2A4.9,4.9,0,0,1,199.26,132.71Z"/><path class="cls-1" d="M222.22,114.14h-2.95v5.19h-2.94v2.31h2.94v9a7.26,7.26,0,0,0,.76,3.61,4.12,4.12,0,0,0,2.15,1.88,9.11,9.11,0,0,0,3.31.54h2.63v-2.76h-3a2.88,2.88,0,0,1-2.13-.75,2.85,2.85,0,0,1-.76-2.13v-9.36h5.9v-2.31h-5.9Z"/><path class="cls-1" d="M244.44,116.57a1.81,1.81,0,0,0,2-1.92,2,2,0,0,0-.5-1.38,2,2,0,0,0-1.52-.54,1.79,1.79,0,0,0-2,1.92,2,2,0,0,0,.49,1.38A2,2,0,0,0,244.44,116.57Z"/><polygon class="cls-1" points="240.94 119.33 240.94 121.77 243.57 121.77 243.57 136.45 246.65 136.45 246.65 121.77 246.65 119.33 243.57 119.33 240.94 119.33"/><polygon class="cls-1" points="269.48 134.01 268.79 134.01 263.9 119.33 260.69 119.33 266.52 136.45 267.3 136.45 268.77 136.45 269.6 136.45 271.01 136.45 271.69 136.45 276.75 119.33 273.74 119.33 269.48 134.01"/><path class="cls-1" d="M306,127.09a9.42,9.42,0,0,0-.88-4,7.34,7.34,0,0,0-2.69-3.09,8.09,8.09,0,0,0-4.6-1.21,8.62,8.62,0,0,0-3.73.76,7.34,7.34,0,0,0-2.62,2,8.61,8.61,0,0,0-1.52,2.83,10.75,10.75,0,0,0-.5,3.24v.58a10.54,10.54,0,0,0,.5,3.2,8.56,8.56,0,0,0,1.52,2.84,7.5,7.5,0,0,0,2.66,2A9.1,9.1,0,0,0,298,137a9.2,9.2,0,0,0,3.62-.68,6.65,6.65,0,0,0,4.08-5h-2.89a3.51,3.51,0,0,1-1.52,2.09,5.63,5.63,0,0,1-3.29.89,5.49,5.49,0,0,1-3.17-.85,4.85,4.85,0,0,1-1.84-2.31,8,8,0,0,1-.57-2.7H306Zm-11.2-4.81a5.16,5.16,0,0,1,3-.83,5.36,5.36,0,0,1,2.92.73,4.64,4.64,0,0,1,1.73,2.07,7.32,7.32,0,0,1,.49,1.91H292.53a7.25,7.25,0,0,1,.46-1.6A5,5,0,0,1,294.78,122.28Z"/><rect class="cls-1" x="222.86" y="41.19" width="11.24" height="11.24" transform="translate(33.82 175.27) rotate(-45)"/><path class="cls-1" d="M232.82,35.4c20.11-17,52.55-7.06,57.48,19.21l-1,.26c-6.65-21-34.32-28.48-49.41-11.94l-7-7.53Z"/></svg>