<?xml version="1.0" encoding="utf-8"?>
<!-- Generator: Adobe Illustrator 26.0.2, SVG Export Plug-In . SVG Version: 6.00 Build 0)  -->
<svg version="1.1" id="Layer_1" xmlns="http://www.w3.org/2000/svg" xmlns:xlink="http://www.w3.org/1999/xlink" x="0px" y="0px"
	 viewBox="0 0 347.2 162" style="enable-background:new 0 0 347.2 162;" xml:space="preserve">
<style type="text/css">
	.st0{fill:#FF0000;}
</style>
<g>
	<path d="M59.2,106.1H20.3V74.7l5.6-5.6h18.5V56.2h-9.2v7.3H20.3V50.7h38.9V106.1z M44.4,100.6V74.7h-9.2v25.9H44.4z"/>
	<path d="M107.5,82.1v24H64.9V87.7h14.9v12.9h12.9v-11L66.8,72.8V56.2l5.6-5.6h33.3v14.7H90.8v-9.2h-9.2v9.2L107.5,82.1z"/>
	<path d="M139.5,106.1h-24.3V56.2h-7.3v-5.6h7.3V34l14.9-1.9v18.5h9.4v5.6h-9.4v44.3h9.4L139.5,106.1z"/>
	<path d="M181.6,50.7v29.6h-24v20.3h9.2V87.7h14.7v18.5h-38.7V50.7H181.6z M166.8,56.2h-9.2v18.5h9.2V56.2z"/>
	<path d="M215.1,56.2h-11.5v49.9h-14.7V50.7h26.2V56.2z"/>
	<path d="M218,50.7l14.9-1.9v57.3H218V50.7z"/>
	<path d="M280.1,50.7v55.5h-38.9V50.7H280.1z M265.2,56.2H256v44.3h9.2V56.2z"/>
	<path d="M327,56.2v49.9h-14.8V56.2H303v49.9h-14.8V50.7h33.3L327,56.2z"/>
	<path class="st0" d="M24.9,123.5c1.3,0.1,2.5-0.8,2.6-2.1c0-0.1,0-0.3,0-0.4c0-0.7-0.2-1.3-0.7-1.8c-0.5-0.5-1.3-0.8-2-0.7
		c-1.3-0.2-2.5,0.8-2.6,2.1c0,0.2,0,0.3,0,0.5c0,0.7,0.2,1.3,0.6,1.8C23.4,123.3,24.1,123.6,24.9,123.5z"/>
	<polygon class="st0" points="20.2,127.2 20.2,130.4 23.7,130.4 23.7,149.7 27.8,149.7 27.8,130.4 27.8,127.2 23.7,127.2 	"/>
	<path class="st0" d="M60.4,126.5h-0.2c-1.6-0.1-3.3,0.4-4.7,1.2c-1.3,0.8-2.2,2.1-2.8,3.5c-0.2,0.4-0.3,0.8-0.4,1.2v-5.3h-3.2v22.6
		h4.1v-13.5c-0.1-1.6,0.5-3.2,1.6-4.4c1.1-1.1,2.7-1.7,4.3-1.6c1.5-0.1,3,0.5,4,1.6c1,1.1,1.6,2.6,1.5,4.2v13.7h4v-12.9
		c0.2-2.7-0.5-5.4-2-7.7C65.2,127.3,62.8,126.3,60.4,126.5z"/>
	<path class="st0" d="M91.9,123.5c1.3,0.1,2.5-0.8,2.6-2.1c0-0.1,0-0.3,0-0.4c0-0.7-0.2-1.3-0.7-1.8c-1.2-0.9-2.8-0.9-4,0
		c-0.4,0.5-0.7,1.2-0.7,1.8c-0.1,1.3,0.9,2.5,2.2,2.5C91.7,123.5,91.8,123.5,91.9,123.5z"/>
	<polygon class="st0" points="87.3,127.2 87.3,130.4 90.8,130.4 90.8,149.7 94.9,149.7 94.9,130.4 94.9,127.2 90.8,127.2 	"/>
	<path class="st0" d="M120.7,120.3h-4v6.8h-3.9v3h3.9v11.9c-0.1,1.6,0.3,3.3,1,4.8c0.6,1.1,1.6,2,2.8,2.5c1.4,0.5,2.9,0.7,4.4,0.7
		h3.5v-3.6h-4c-1,0.1-2-0.3-2.8-1c-0.7-0.8-1.1-1.8-1-2.8v-12.3h7.8v-3h-7.8L120.7,120.3z"/>
	<path class="st0" d="M150,123.5c1.3-0.2,2.2-1.3,2-2.6c-0.2-1.3-1.3-2.2-2.6-2c-1.3,0.2-2.2,1.3-2,2.6c0.1,0.5,0.3,1,0.6,1.3
		C148.5,123.3,149.2,123.6,150,123.5z"/>
	<polygon class="st0" points="145.4,127.2 145.4,130.4 148.9,130.4 148.9,149.7 152.9,149.7 152.9,130.4 152.9,127.2 148.9,127.2 	
		"/>
	<path class="st0" d="M186.8,127.7c-1.8-0.6-3.7-0.9-5.7-0.8h-2.1l-2.1,0.1l-2,0.1v3.5c0.6,0,1.3-0.1,2.2-0.1l2.6-0.1h2.6
		c1.3-0.1,2.6,0.3,3.5,1.2c0.9,1,1.3,2.2,1.2,3.5v0.6h-5.7c-1.7,0-3.4,0.2-5,0.8c-1.3,0.5-2.4,1.3-3.1,2.4c-0.7,1.2-1.1,2.6-1.1,4
		c0,1.4,0.3,2.8,1,4c0.7,1.1,1.6,2,2.8,2.5c1.4,0.6,2.9,0.9,4.4,0.9c1.4,0,2.8-0.3,4-0.8c1.1-0.5,2-1.4,2.6-2.5
		c0.3-0.5,0.6-1.1,0.7-1.7v4.5h3.2v-14.2c0.1-1.7-0.3-3.5-1.1-5C189.3,129.2,188.2,128.2,186.8,127.7z M186.3,144.9
		c-0.5,0.8-1.3,1.4-2.2,1.8c-0.9,0.4-1.8,0.5-2.7,0.5c-1.3,0.1-2.7-0.3-3.8-1.1c-0.9-0.8-1.4-1.9-1.3-3c0-1.2,0.5-2.3,1.3-3
		c1.1-0.9,2.4-1.3,3.8-1.2h5.9v2.6C187.3,142.6,186.9,143.8,186.3,144.9L186.3,144.9z"/>
	<path class="st0" d="M216.6,120.3h-3.9v6.8h-3.9v3h3.9v11.9c-0.1,1.6,0.3,3.3,1,4.8c0.6,1.1,1.6,2,2.8,2.5c1.4,0.5,2.9,0.7,4.4,0.7
		h3.5v-3.6h-4c-1,0.1-2-0.3-2.8-1c-0.7-0.8-1.1-1.8-1-2.8v-12.3h7.8v-3h-7.8L216.6,120.3z"/>
	<path class="st0" d="M245.9,123.5c1.3,0.1,2.5-0.8,2.6-2.1c0-0.1,0-0.3,0-0.4c0-0.7-0.2-1.3-0.7-1.8c-0.5-0.5-1.3-0.8-2-0.7
		c-1.3-0.2-2.5,0.8-2.6,2.1c0,0.2,0,0.3,0,0.5c0,0.7,0.2,1.3,0.6,1.8C244.4,123.3,245.1,123.6,245.9,123.5z"/>
	<polygon class="st0" points="241.2,127.2 241.2,130.4 244.7,130.4 244.7,149.7 248.8,149.7 248.8,130.4 248.8,127.2 244.7,127.2 	
		"/>
	<polygon class="st0" points="278.9,146.5 277.9,146.5 271.5,127.2 267.3,127.2 275,149.7 276,149.7 277.9,149.7 279,149.7 
		280.9,149.7 281.8,149.7 288.4,127.2 284.5,127.2 	"/>
	<path class="st0" d="M327,137.4c0-1.8-0.4-3.6-1.2-5.3c-0.8-1.7-2-3.1-3.5-4.1c-1.8-1.1-3.9-1.7-6.1-1.6c-1.7,0-3.4,0.3-4.9,1
		c-1.3,0.6-2.5,1.5-3.5,2.6c-0.9,1.1-1.6,2.4-2,3.7c-0.4,1.4-0.7,2.8-0.7,4.3v0.8c0,1.4,0.2,2.9,0.7,4.2c0.4,1.4,1.1,2.6,2,3.7
		c1,1.1,2.2,2,3.5,2.6c1.6,0.7,3.3,1,5.1,1c1.6,0,3.3-0.3,4.8-0.9c2.8-1.1,4.8-3.6,5.4-6.6h-3.8c-0.3,1.1-1,2.1-2,2.8
		c-1.3,0.8-2.8,1.2-4.3,1.2c-1.5,0.1-2.9-0.3-4.2-1.1c-1.1-0.7-2-1.8-2.4-3c-0.5-1.1-0.7-2.3-0.8-3.6H327V137.4z M312.2,131
		c1.2-0.8,2.6-1.1,4-1.1c1.3-0.1,2.7,0.3,3.8,1c1,0.7,1.8,1.6,2.3,2.7c0.3,0.8,0.5,1.7,0.6,2.5h-13.7c0.1-0.7,0.3-1.4,0.6-2.1
		C310.3,132.8,311.1,131.8,312.2,131L312.2,131z"/>
	
		<rect x="217.4" y="24.2" transform="matrix(0.7071 -0.7071 0.7071 0.7071 43.5149 168.2217)" class="st0" width="14.8" height="14.8"/>
	<path class="st0" d="M230.5,16.5c26.5-22.4,69.3-9.3,75.8,25.3l-1.3,0.3c-8.8-27.7-45.2-37.5-65.1-15.7L230.5,16.5L230.5,16.5z"/>
</g>
</svg>
